<svg xmlns="http://www.w3.org/2000/svg" viewBox="0 0 360 610" role="img" aria-labelledby="title desc"><title id="title">用反例检查一条改进是否真的有用：两条案例流程</title><desc id="desc">Mem0：已完成、无迁移、只读演练三题 → 应用测试核验后不同处理 → 不能三题都重跑迁移；Graphiti：出差由 Lin 批准的反例 → 核对它是否被误用于正式发布 → 发现用途混淆就修关系选择。检查点：一条规则不仅要在正例有效，也要在例外和禁止操作的场景中不误触发。</desc><style>svg{color:#29564c;font-family:system-ui,sans-serif}text{fill:currentColor;font-size:16px}rect{stroke-opacity:.6}@media(prefers-color-scheme:dark){svg{color:#87b7a8}}</style><text x="12" y="26" font-weight="600">Mem0</text>
<rect x="12" y="42" width="336" height="60" rx="4" fill="none" stroke="currentColor"/>
<text x="28" y="67">1. 已完成、无迁移、只读演练三题</text>
<path d="M180 105v16m-5-5 5 5 5-5" fill="none" stroke="currentColor"/>
<rect x="12" y="127" width="336" height="60" rx="4" fill="none" stroke="currentColor"/>
<text x="28" y="152">2. 应用测试核验后不同处理</text>
<path d="M180 190v16m-5-5 5 5 5-5" fill="none" stroke="currentColor"/>
<rect x="12" y="212" width="336" height="60" rx="4" fill="none" stroke="currentColor"/>
<text x="28" y="237">3. 不能三题都重跑迁移</text>
<text x="12" y="309" font-weight="600">Graphiti</text>
<rect x="12" y="325" width="336" height="60" rx="4" fill="none" stroke="currentColor"/>
<text x="28" y="350">1. 出差由 Lin 批准的反例</text>
<path d="M180 388v16m-5-5 5 5 5-5" fill="none" stroke="currentColor"/>
<rect x="12" y="410" width="336" height="60" rx="4" fill="none" stroke="currentColor"/>
<text x="28" y="435">2. 核对它是否被误用于正式发布</text>
<path d="M180 473v16m-5-5 5 5 5-5" fill="none" stroke="currentColor"/>
<rect x="12" y="495" width="336" height="60" rx="4" fill="none" stroke="currentColor"/>
<text x="28" y="520">3. 发现用途混淆就修关系选择</text>
<text x="12" y="592" font-size="13">教学推演；“应用”步骤需自行实现。</text></svg>