<svg xmlns="http://www.w3.org/2000/svg" viewBox="0 0 360 610" role="img" aria-labelledby="title desc"><title id="title">回滚为什么不能代替测试：两条案例流程</title><desc id="desc">Mem0：误把检查改成重跑迁移 → 应用查历史并恢复旧正文 → 已执行的数据库动作另行处理；Graphiti：批准人误改 Mei 并已发邮件 → 应用纠正关系并检查摘要 → 邮件影响另行处理。检查点：恢复记忆不能撤销外部副作用；回滚记录、回滚工具动作必须分别安排。</desc><style>svg{color:#29564c;font-family:system-ui,sans-serif}text{fill:currentColor;font-size:16px}rect{stroke-opacity:.6}@media(prefers-color-scheme:dark){svg{color:#87b7a8}}</style><text x="12" y="26" font-weight="600">Mem0</text>
<rect x="12" y="42" width="336" height="60" rx="4" fill="none" stroke="currentColor"/>
<text x="28" y="67">1. 误把检查改成重跑迁移</text>
<path d="M180 105v16m-5-5 5 5 5-5" fill="none" stroke="currentColor"/>
<rect x="12" y="127" width="336" height="60" rx="4" fill="none" stroke="currentColor"/>
<text x="28" y="152">2. 应用查历史并恢复旧正文</text>
<path d="M180 190v16m-5-5 5 5 5-5" fill="none" stroke="currentColor"/>
<rect x="12" y="212" width="336" height="60" rx="4" fill="none" stroke="currentColor"/>
<text x="28" y="237">3. 已执行的数据库动作另行处理</text>
<text x="12" y="309" font-weight="600">Graphiti</text>
<rect x="12" y="325" width="336" height="60" rx="4" fill="none" stroke="currentColor"/>
<text x="28" y="350">1. 批准人误改 Mei 并已发邮件</text>
<path d="M180 388v16m-5-5 5 5 5-5" fill="none" stroke="currentColor"/>
<rect x="12" y="410" width="336" height="60" rx="4" fill="none" stroke="currentColor"/>
<text x="28" y="435">2. 应用纠正关系并检查摘要</text>
<path d="M180 473v16m-5-5 5 5 5-5" fill="none" stroke="currentColor"/>
<rect x="12" y="495" width="336" height="60" rx="4" fill="none" stroke="currentColor"/>
<text x="28" y="520">3. 邮件影响另行处理</text>
<text x="12" y="592" font-size="13">教学推演；“应用”步骤需自行实现。</text></svg>