<svg xmlns="http://www.w3.org/2000/svg" viewBox="0 0 360 610" role="img" aria-labelledby="title desc"><title id="title">读源码时，怎样把一个宣传词拆成实际动作：两条案例流程</title><desc id="desc">Mem0：正确 E42 记录在语义池外 → 检查关键词能否新增候选 → 此快照只加分，C 仍缺失；Graphiti：C 只被文字找到，A 只被向量找到 → 检查合并后的候选集合 → 核对 A、C 是否参与排序。检查点：用一条可预测的漏召回例子检查宣传词，不只看“混合检索”的名字。</desc><style>svg{color:#29564c;font-family:system-ui,sans-serif}text{fill:currentColor;font-size:16px}rect{stroke-opacity:.6}@media(prefers-color-scheme:dark){svg{color:#87b7a8}}</style><text x="12" y="26" font-weight="600">Mem0</text>
<rect x="12" y="42" width="336" height="60" rx="4" fill="none" stroke="currentColor"/>
<text x="28" y="67">1. 正确 E42 记录在语义池外</text>
<path d="M180 105v16m-5-5 5 5 5-5" fill="none" stroke="currentColor"/>
<rect x="12" y="127" width="336" height="60" rx="4" fill="none" stroke="currentColor"/>
<text x="28" y="152">2. 检查关键词能否新增候选</text>
<path d="M180 190v16m-5-5 5 5 5-5" fill="none" stroke="currentColor"/>
<rect x="12" y="212" width="336" height="60" rx="4" fill="none" stroke="currentColor"/>
<text x="28" y="237">3. 此快照只加分，C 仍缺失</text>
<text x="12" y="309" font-weight="600">Graphiti</text>
<rect x="12" y="325" width="336" height="60" rx="4" fill="none" stroke="currentColor"/>
<text x="28" y="350">1. C 只被文字找到，A 只被向量找到</text>
<path d="M180 388v16m-5-5 5 5 5-5" fill="none" stroke="currentColor"/>
<rect x="12" y="410" width="336" height="60" rx="4" fill="none" stroke="currentColor"/>
<text x="28" y="435">2. 检查合并后的候选集合</text>
<path d="M180 473v16m-5-5 5 5 5-5" fill="none" stroke="currentColor"/>
<rect x="12" y="495" width="336" height="60" rx="4" fill="none" stroke="currentColor"/>
<text x="28" y="520">3. 核对 A、C 是否参与排序</text>
<text x="12" y="592" font-size="13">教学推演；“应用”步骤需自行实现。</text></svg>