<svg xmlns="http://www.w3.org/2000/svg" viewBox="0 0 360 610" role="img" aria-labelledby="title desc"><title id="title">HippoRAG：把相关性沿连接传播：两条案例流程</title><desc id="desc">Mem0：Atlas 记录获得对象加分 → 加分只调整当前候选次序 → 应用另查团队补第二段；Graphiti：基础搜索只找到维护关系 → 应用选扩展查询或再搜平台组 → 显式补回批准关系。检查点：对象加分不等于沿图传播；Graphiti 也不是所有入口默认运行 BFS 或 PPR。</desc><style>svg{color:#29564c;font-family:system-ui,sans-serif}text{fill:currentColor;font-size:16px}rect{stroke-opacity:.6}@media(prefers-color-scheme:dark){svg{color:#87b7a8}}</style><text x="12" y="26" font-weight="600">Mem0</text>
<rect x="12" y="42" width="336" height="60" rx="4" fill="none" stroke="currentColor"/>
<text x="28" y="67">1. Atlas 记录获得对象加分</text>
<path d="M180 105v16m-5-5 5 5 5-5" fill="none" stroke="currentColor"/>
<rect x="12" y="127" width="336" height="60" rx="4" fill="none" stroke="currentColor"/>
<text x="28" y="152">2. 加分只调整当前候选次序</text>
<path d="M180 190v16m-5-5 5 5 5-5" fill="none" stroke="currentColor"/>
<rect x="12" y="212" width="336" height="60" rx="4" fill="none" stroke="currentColor"/>
<text x="28" y="237">3. 应用另查团队补第二段</text>
<text x="12" y="309" font-weight="600">Graphiti</text>
<rect x="12" y="325" width="336" height="60" rx="4" fill="none" stroke="currentColor"/>
<text x="28" y="350">1. 基础搜索只找到维护关系</text>
<path d="M180 388v16m-5-5 5 5 5-5" fill="none" stroke="currentColor"/>
<rect x="12" y="410" width="336" height="60" rx="4" fill="none" stroke="currentColor"/>
<text x="28" y="435">2. 应用选扩展查询或再搜平台组</text>
<path d="M180 473v16m-5-5 5 5 5-5" fill="none" stroke="currentColor"/>
<rect x="12" y="495" width="336" height="60" rx="4" fill="none" stroke="currentColor"/>
<text x="28" y="520">3. 显式补回批准关系</text>
<text x="12" y="592" font-size="13">教学推演；“应用”步骤需自行实现。</text></svg>