<svg xmlns="http://www.w3.org/2000/svg" viewBox="0 0 360 610" role="img" aria-labelledby="title desc"><title id="title">换模型后，旧索引为什么可能不能继续用：两条案例流程</title><desc id="desc">Mem0：旧记录向量由模型 A 生成 → 应用更换模型 B 后迁移或重建 → 复测迁移教训能否被新查询找到；Graphiti：关系搜索向量来自旧模型 → 应用检查新旧表示是否兼容 → 核对新索引的关系搜索结果。检查点：相同维度不保证向量坐标有相同含义；不能随意混用不同模型的表示。</desc><style>svg{color:#29564c;font-family:system-ui,sans-serif}text{fill:currentColor;font-size:16px}rect{stroke-opacity:.6}@media(prefers-color-scheme:dark){svg{color:#87b7a8}}</style><text x="12" y="26" font-weight="600">Mem0</text>
<rect x="12" y="42" width="336" height="60" rx="4" fill="none" stroke="currentColor"/>
<text x="28" y="67">1. 旧记录向量由模型 A 生成</text>
<path d="M180 105v16m-5-5 5 5 5-5" fill="none" stroke="currentColor"/>
<rect x="12" y="127" width="336" height="60" rx="4" fill="none" stroke="currentColor"/>
<text x="28" y="152">2. 应用更换模型 B 后迁移或重建</text>
<path d="M180 190v16m-5-5 5 5 5-5" fill="none" stroke="currentColor"/>
<rect x="12" y="212" width="336" height="60" rx="4" fill="none" stroke="currentColor"/>
<text x="28" y="237">3. 复测迁移教训能否被新查询找到</text>
<text x="12" y="309" font-weight="600">Graphiti</text>
<rect x="12" y="325" width="336" height="60" rx="4" fill="none" stroke="currentColor"/>
<text x="28" y="350">1. 关系搜索向量来自旧模型</text>
<path d="M180 388v16m-5-5 5 5 5-5" fill="none" stroke="currentColor"/>
<rect x="12" y="410" width="336" height="60" rx="4" fill="none" stroke="currentColor"/>
<text x="28" y="435">2. 应用检查新旧表示是否兼容</text>
<path d="M180 473v16m-5-5 5 5 5-5" fill="none" stroke="currentColor"/>
<rect x="12" y="495" width="336" height="60" rx="4" fill="none" stroke="currentColor"/>
<text x="28" y="520">3. 核对新索引的关系搜索结果</text>
<text x="12" y="592" font-size="13">教学推演；“应用”步骤需自行实现。</text></svg>