<svg xmlns="http://www.w3.org/2000/svg" viewBox="0 0 760 455" role="img" aria-labelledby="title desc"><title id="title">四种候选边界不能混同</title><desc id="desc">Mem0 以语义池评分，MCP 合并候选，Graphiti 使用配置化搜索，HippoRAG 沿图扩散。</desc><style>svg{color:#29564c;font-family:system-ui,sans-serif}text{fill:currentColor;font-size:15px}rect,line,path{stroke:currentColor} @media(prefers-color-scheme:dark){svg{color:#87b7a8}}</style>
<text x="12" y="35" font-weight="600">Mem0</text>
<rect x="12" y="50" width="220" height="48" rx="4" fill="none" stroke-opacity=".6"/><text x="122" y="80" text-anchor="middle">语义候选池</text>
<path d="M237 74h19m-6-5 6 5-6 5" fill="none" stroke-width="1.5"/>
<rect x="262" y="50" width="220" height="48" rx="4" fill="none" stroke-opacity=".6"/><text x="372" y="80" text-anchor="middle">BM25 / entity boost</text>
<path d="M487 74h19m-6-5 6 5-6 5" fill="none" stroke-width="1.5"/>
<rect x="512" y="50" width="220" height="48" rx="4" fill="none" stroke-opacity=".6"/><text x="622" y="80" text-anchor="middle">重排与返回</text>
<text x="12" y="135" font-weight="600">MCP Service</text>
<rect x="12" y="150" width="220" height="48" rx="4" fill="none" stroke-opacity=".6"/><text x="122" y="180" text-anchor="middle">FTS + vector</text>
<path d="M237 174h19m-6-5 6 5-6 5" fill="none" stroke-width="1.5"/>
<rect x="262" y="150" width="220" height="48" rx="4" fill="none" stroke-opacity=".6"/><text x="372" y="180" text-anchor="middle">并集 / weighted 或 RRF</text>
<path d="M487 174h19m-6-5 6 5-6 5" fill="none" stroke-width="1.5"/>
<rect x="512" y="150" width="220" height="48" rx="4" fill="none" stroke-opacity=".6"/><text x="622" y="180" text-anchor="middle">补取正文</text>
<text x="12" y="235" font-weight="600">Graphiti</text>
<rect x="12" y="250" width="220" height="48" rx="4" fill="none" stroke-opacity=".6"/><text x="122" y="280" text-anchor="middle">全文 / cosine / BFS</text>
<path d="M237 274h19m-6-5 6 5-6 5" fill="none" stroke-width="1.5"/>
<rect x="262" y="250" width="220" height="48" rx="4" fill="none" stroke-opacity=".6"/><text x="372" y="280" text-anchor="middle">RRF / MMR / 重排</text>
<path d="M487 274h19m-6-5 6 5-6 5" fill="none" stroke-width="1.5"/>
<rect x="512" y="250" width="220" height="48" rx="4" fill="none" stroke-opacity=".6"/><text x="622" y="280" text-anchor="middle">事实与来源</text>
<text x="12" y="335" font-weight="600">HippoRAG</text>
<rect x="12" y="350" width="220" height="48" rx="4" fill="none" stroke-opacity=".6"/><text x="122" y="380" text-anchor="middle">fact + dense seeds</text>
<path d="M237 374h19m-6-5 6 5-6 5" fill="none" stroke-width="1.5"/>
<rect x="262" y="350" width="220" height="48" rx="4" fill="none" stroke-opacity=".6"/><text x="372" y="380" text-anchor="middle">PPR 扩散</text>
<path d="M487 374h19m-6-5 6 5-6 5" fill="none" stroke-width="1.5"/>
<rect x="512" y="350" width="220" height="48" rx="4" fill="none" stroke-opacity=".6"/><text x="622" y="380" text-anchor="middle">passage 排序</text>
<text x="12" y="450" style="font-size:12px">概念图：箭头表示数据或控制流，不表示所有步骤默认启用。</text></svg>